<svg width="54" height="54" viewBox="0 0 54 54" fill="none" xmlns="http://www.w3.org/2000/svg">
<path d="M17.7301 43.7001C17.5981 43.7413 17.4591 43.7547 17.3217 43.7395C17.1843 43.7243 17.0516 43.6807 16.9319 43.6116C16.8122 43.5425 16.7081 43.4493 16.6262 43.338C16.5443 43.2266 16.4864 43.0995 16.4561 42.9646L15.7216 39.7069C15.6763 39.5045 15.5692 39.3213 15.4151 39.1825C15.2611 39.0437 15.0677 38.9562 14.8618 38.9322L11.5562 38.5456C11.4189 38.5294 11.2865 38.4849 11.1673 38.415C11.0481 38.345 10.9446 38.2512 10.8635 38.1392C10.7824 38.0273 10.7254 37.8998 10.6961 37.7647C10.6668 37.6296 10.6657 37.49 10.6931 37.3545L11.3538 34.0721C11.3943 33.8694 11.3709 33.6593 11.287 33.4704C11.2031 33.2816 11.0628 33.1234 10.8853 33.0175L8.0236 31.3122C7.90528 31.2417 7.80281 31.1475 7.72261 31.0355C7.6424 30.9235 7.5862 30.7961 7.55753 30.6614C7.52885 30.5267 7.52832 30.3875 7.55596 30.2526C7.5836 30.1176 7.63882 29.9898 7.71816 29.8772L9.65197 27.1278C9.77139 26.9593 9.83571 26.7579 9.83607 26.5513C9.83644 26.3448 9.77284 26.1432 9.654 25.9743L7.73221 23.2389C7.65317 23.1264 7.59816 22.9989 7.57062 22.8642C7.54307 22.7296 7.54359 22.5907 7.57214 22.4562C7.60068 22.3217 7.65664 22.1946 7.73652 22.0827C7.8164 21.9709 7.91849 21.8767 8.0364 21.806L10.9212 20.0814C11.0977 19.9757 11.2372 19.8182 11.3209 19.6303C11.4046 19.4424 11.4283 19.2333 11.3888 19.0315L10.749 15.7396C10.7227 15.6048 10.7244 15.466 10.7541 15.3319C10.7837 15.1978 10.8407 15.0712 10.9215 14.9601C11.0022 14.8489 11.105 14.7556 11.2233 14.686C11.3417 14.6163 11.4732 14.5718 11.6095 14.5552L14.9358 14.15C15.1401 14.1252 15.3318 14.038 15.4847 13.9002C15.6377 13.7624 15.7443 13.5807 15.7902 13.3801L16.5336 10.1004C16.5643 9.96631 16.6224 9.84001 16.7041 9.72938C16.7858 9.61875 16.8895 9.52616 17.0086 9.45742C17.1277 9.38867 17.2598 9.34524 17.3964 9.32983C17.5331 9.31443 17.6715 9.32739 17.8029 9.3679L20.9911 10.3518C21.1883 10.4127 21.3995 10.4112 21.5958 10.3473C21.792 10.2835 21.9638 10.1604 22.0873 9.99513L24.0969 7.30443C24.1795 7.19386 24.2841 7.10158 24.404 7.0334C24.524 6.96522 24.6568 6.92261 24.7941 6.90825C24.9313 6.89389 25.07 6.90809 25.2015 6.94996C25.333 6.99183 25.4544 7.06047 25.5581 7.15155L28.0598 9.34647C28.2155 9.48312 28.4097 9.56807 28.6157 9.58958C28.8217 9.6111 29.0293 9.56811 29.2098 9.46657L32.1206 7.82501C32.2411 7.75723 32.3743 7.71516 32.5119 7.70147C32.6494 7.68778 32.7884 7.70276 32.9198 7.74547C33.0513 7.78818 33.1725 7.85769 33.2758 7.94961C33.3791 8.04153 33.4621 8.15386 33.5198 8.27951L34.9088 11.3077C34.9952 11.4961 35.1381 11.6529 35.3176 11.7566C35.4971 11.8602 35.7044 11.9055 35.9108 11.8862L39.2366 11.5778C39.3742 11.5649 39.513 11.5807 39.6443 11.6241C39.7755 11.6676 39.8963 11.7378 39.999 11.8303C40.1018 11.9228 40.1842 12.0357 40.2411 12.1616C40.298 12.2876 40.3282 12.424 40.3298 12.5623L40.3635 15.9038C40.3658 16.1109 40.4324 16.3122 40.554 16.4799C40.6757 16.6475 40.8464 16.7733 41.0425 16.8397L44.1942 17.9088C44.325 17.9531 44.4451 18.0239 44.5471 18.1168C44.6491 18.2098 44.7308 18.3228 44.787 18.4489C44.8432 18.5749 44.8727 18.7112 44.8736 18.8492C44.8745 18.9872 44.8469 19.1239 44.7924 19.2507L43.467 22.3364C43.3856 22.5261 43.365 22.7363 43.4078 22.9382C43.4506 23.1401 43.5549 23.3238 43.7062 23.4641L46.1524 25.7332C46.2534 25.8268 46.334 25.9404 46.3891 26.0666C46.4442 26.1929 46.4726 26.3292 46.4725 26.4669C46.4724 26.6047 46.4439 26.7409 46.3887 26.8672C46.3335 26.9934 46.2528 27.1068 46.1517 27.2004L43.6873 29.4888C43.5365 29.6288 43.4325 29.812 43.3896 30.0134C43.3468 30.2147 43.3671 30.4244 43.4478 30.6137L44.7593 33.6942C44.8131 33.8206 44.8402 33.9567 44.8391 34.094C44.838 34.2314 44.8085 34.367 44.7527 34.4925C44.6968 34.618 44.6157 34.7306 44.5143 34.8234C44.413 34.9161 44.2937 34.987 44.1638 35.0316L40.993 36.1235C40.7985 36.1902 40.6292 36.3153 40.5084 36.4817C40.3875 36.6481 40.3209 36.8477 40.3176 37.0534L40.2567 40.4108C40.2545 40.5482 40.224 40.6837 40.1671 40.8088C40.1101 40.9339 40.028 41.046 39.9258 41.1379C39.8236 41.2299 39.7036 41.2998 39.5732 41.3432C39.4428 41.3867 39.3048 41.4029 39.1679 41.3906L35.8381 41.094C35.6324 41.0756 35.426 41.1213 35.2473 41.2249C35.0686 41.3285 34.9264 41.4848 34.8402 41.6725L33.426 44.722C33.3681 44.847 33.2851 44.9587 33.1821 45.0501C33.079 45.1415 32.9582 45.2106 32.8272 45.2532C32.6962 45.2957 32.5578 45.3107 32.4207 45.2972C32.2836 45.2838 32.1508 45.2421 32.0306 45.1749L29.1228 43.5493C28.943 43.4501 28.737 43.4086 28.5328 43.4306C28.3286 43.4526 28.1361 43.5369 27.9815 43.6721L25.4639 45.8847C25.3603 45.9761 25.2388 46.0451 25.1071 46.0872C24.9755 46.1294 24.8366 46.1438 24.6991 46.1295C24.5616 46.1152 24.4286 46.0726 24.3084 46.0043C24.1882 45.936 24.0835 45.8436 24.0008 45.7328L22.0176 43.0578C21.8931 42.8928 21.7204 42.7705 21.5235 42.7076C21.3265 42.6448 21.1149 42.6445 20.9178 42.7069L17.7301 43.7001Z" fill="#EE3131"/>
<path d="M25.3461 28.255C25.2445 28.255 25.1621 28.3374 25.1621 28.439C25.1621 28.5407 25.2445 28.623 25.3461 28.623C25.4477 28.623 25.5301 28.5407 25.5301 28.439C25.5301 28.3374 25.4477 28.255 25.3461 28.255Z" fill="#FF7664"/>
<path d="M27.0273 34.106L27.0273 19.393" stroke="#FAFAFA" stroke-width="3"/>
<path d="M19.8281 26.5649L27.0961 19.2979L34.3641 26.5649" stroke="#FAFAFA" stroke-width="3"/>
</svg>
