<svg width="19" height="16" viewBox="0 0 19 16" fill="none" xmlns="http://www.w3.org/2000/svg">
<path fill-rule="evenodd" clip-rule="evenodd" d="M18.3828 13.5478C18.5859 13.0675 18.6982 12.5395 18.6982 11.9854V4.01367C18.6981 1.79706 16.9012 0.000184692 14.6846 -1.45736e-07C13.7641 -1.7916e-07 12.9158 0.309855 12.2385 0.830953C11.5906 1.32946 11.0991 2.02129 10.8505 2.82012C10.7332 3.19716 10.67 3.59804 10.6699 4.01367V4.85254C10.6592 5.57273 10.0723 6.15301 9.34961 6.15332C8.62025 6.15321 8.02856 5.56234 8.02832 4.83301V4.01367C8.02813 1.79695 6.23044 -4.52704e-07 4.01367 -5.33195e-07C1.7971 0.000229498 0.000185013 1.79709 0 4.01367V11.9854C0 14.2021 1.79699 15.9998 4.01367 16C6.23055 16 8.02832 14.2022 8.02832 11.9854V11.3525C8.03867 10.632 8.62567 10.051 9.34863 10.0508C10.0782 10.0508 10.6699 10.6425 10.6699 11.3721V11.9854C10.6699 14.2022 12.4677 16 14.6846 16C15.0145 16 15.3351 15.9601 15.6419 15.885C16.8811 15.5816 17.8944 14.7027 18.3828 13.5478Z" fill="#FF7664"/>
</svg>
