<svg width="41" height="40" viewBox="0 0 41 40" fill="none" xmlns="http://www.w3.org/2000/svg">
<path d="M21.2342 38.7566C21.1405 38.8583 21.0268 38.9394 20.9002 38.9949C20.7736 39.0504 20.6369 39.0791 20.4987 39.0791C20.3604 39.0791 20.2237 39.0504 20.0971 38.9949C19.9705 38.9394 19.8568 38.8583 19.7632 38.7566L17.4982 36.3026C17.3577 36.1501 17.1734 36.0449 16.9706 36.0017C16.7678 35.9585 16.5565 35.9795 16.3662 36.0616L13.3102 37.3796C13.1832 37.4342 13.0463 37.4619 12.9081 37.461C12.7698 37.46 12.6333 37.4304 12.5071 37.374C12.3809 37.3176 12.2678 37.2357 12.1749 37.1334C12.0819 37.0311 12.0112 36.9106 11.9672 36.7796L10.8982 33.6066C10.8318 33.4109 10.7065 33.2406 10.5395 33.119C10.3724 32.9974 10.1718 32.9305 9.96515 32.9276L6.63415 32.8816C6.49642 32.8797 6.36057 32.8494 6.23512 32.7925C6.10967 32.7356 5.99733 32.6534 5.90513 32.5511C5.81293 32.4487 5.74287 32.3284 5.69934 32.1978C5.6558 32.0671 5.63974 31.9288 5.65215 31.7916L5.95215 28.4436C5.97131 28.238 5.92633 28.0314 5.82337 27.8524C5.72041 27.6733 5.56453 27.5305 5.37715 27.4436L2.34515 26.0356C2.22047 25.9778 2.10905 25.8948 2.01786 25.792C1.92668 25.6891 1.85768 25.5685 1.81517 25.4378C1.77265 25.3071 1.75755 25.169 1.7708 25.0322C1.78404 24.8954 1.82535 24.7628 1.89215 24.6426L3.52815 21.7066C3.62811 21.5269 3.67022 21.3207 3.64875 21.1162C3.62728 20.9116 3.54326 20.7187 3.40815 20.5636L1.20815 18.0326C1.11793 17.9291 1.05002 17.808 1.00865 17.677C0.967276 17.546 0.953333 17.4079 0.967688 17.2713C0.982042 17.1347 1.02439 17.0025 1.09208 16.883C1.15978 16.7635 1.25137 16.6592 1.36115 16.5766L4.03915 14.5626C4.20372 14.439 4.32614 14.2676 4.38967 14.0718C4.4532 13.876 4.45477 13.6653 4.39415 13.4686L3.39815 10.2566C3.35769 10.1252 3.34479 9.98678 3.36025 9.85011C3.37571 9.71344 3.41919 9.58143 3.48799 9.46233C3.55678 9.34322 3.64941 9.23959 3.76007 9.15792C3.87074 9.07624 3.99706 9.01827 4.13115 8.98763L7.38415 8.24563C7.58539 8.19981 7.76752 8.09284 7.90556 7.9394C8.0436 7.78597 8.13079 7.59358 8.15515 7.38863L8.55015 4.05363C8.56638 3.91659 8.6108 3.78438 8.68061 3.66535C8.75043 3.54631 8.84412 3.44301 8.95581 3.36195C9.06749 3.28089 9.19474 3.22382 9.32955 3.19433C9.46437 3.16485 9.60382 3.16359 9.73915 3.19063L13.0031 3.84063C13.2063 3.88115 13.417 3.8576 13.6061 3.77323C13.7953 3.68886 13.9536 3.54783 14.0591 3.36963L15.7591 0.492628C15.8296 0.373678 15.924 0.270632 16.0362 0.189989C16.1485 0.109347 16.2763 0.0528662 16.4116 0.024111C16.5468 -0.00464425 16.6865 -0.00504862 16.8219 0.0229245C16.9573 0.0508977 17.0854 0.106638 17.1981 0.186628L19.9151 2.11463C20.0842 2.23453 20.2864 2.29894 20.4936 2.29894C20.7009 2.29894 20.9031 2.23453 21.0721 2.11463L23.7981 0.184625C23.9109 0.104635 24.039 0.0488982 24.1744 0.020925C24.3098 -0.00704819 24.4495 -0.00664384 24.5847 0.0221113C24.72 0.0508665 24.8478 0.107347 24.9601 0.18799C25.0723 0.268632 25.1667 0.371675 25.2371 0.490625L26.9371 3.36763C27.0427 3.54583 27.201 3.68686 27.3902 3.77123C27.5793 3.8556 27.79 3.87915 27.9931 3.83863L31.2571 3.18863C31.3925 3.16159 31.5319 3.16285 31.6667 3.19233C31.8016 3.22182 31.9288 3.27889 32.0405 3.35995C32.1522 3.44101 32.2459 3.54431 32.3157 3.66335C32.3855 3.78238 32.4299 3.91458 32.4461 4.05162L32.8411 7.38663C32.8655 7.59158 32.9527 7.78396 33.0907 7.9374C33.2288 8.09084 33.4109 8.19781 33.6121 8.24363L36.8651 8.98563C36.9995 9.01623 37.126 9.07426 37.2368 9.15607C37.3477 9.23788 37.4404 9.34171 37.5092 9.46104C37.578 9.58038 37.6215 9.71264 37.6368 9.84955C37.6521 9.98645 37.6389 10.125 37.5981 10.2566L36.6081 13.4706C36.5475 13.6673 36.5491 13.878 36.6126 14.0738C36.6762 14.2696 36.7986 14.441 36.9631 14.5646L39.6391 16.5766C39.7489 16.6592 39.8405 16.7635 39.9082 16.883C39.9759 17.0025 40.0183 17.1347 40.0326 17.2713C40.047 17.4079 40.033 17.546 39.9916 17.677C39.9503 17.808 39.8824 17.929 39.7921 18.0326L37.5921 20.5636C37.457 20.7187 37.373 20.9116 37.3515 21.1162C37.3301 21.3207 37.3722 21.5269 37.4721 21.7066L39.0981 24.6446C39.1649 24.7648 39.2063 24.8974 39.2195 25.0342C39.2327 25.171 39.2176 25.3091 39.1751 25.4398C39.1326 25.5705 39.0636 25.6911 38.9724 25.7939C38.8812 25.8968 38.7698 25.9798 38.6451 26.0376L35.6131 27.4456C35.4258 27.5325 35.2699 27.6753 35.1669 27.8544C35.064 28.0334 35.019 28.24 35.0381 28.4456L35.3382 31.7936C35.3506 31.9308 35.3345 32.0691 35.291 32.1998C35.2474 32.3304 35.1774 32.4507 35.0852 32.5531C34.993 32.6554 34.8806 32.7376 34.7552 32.7945C34.6297 32.8514 34.4939 32.8817 34.3562 32.8836L31.0252 32.9296C30.8198 32.9336 30.6207 33.0007 30.4548 33.1219C30.289 33.243 30.1644 33.4122 30.0982 33.6066L29.0242 36.7816C28.9801 36.9126 28.9094 37.0331 28.8164 37.1354C28.7235 37.2377 28.6104 37.3196 28.4842 37.376C28.358 37.4324 28.2215 37.462 28.0832 37.463C27.945 37.4639 27.8081 37.4362 27.6812 37.3816L24.6262 36.0566C24.4358 35.976 24.2251 35.9563 24.0231 36.0004C23.8211 36.0445 23.6377 36.15 23.4982 36.3026L21.2342 38.7566Z" fill="#EE3131"/>
<path d="M18.3397 18.7846C18.3397 18.683 18.2573 18.6006 18.1557 18.6006C18.0541 18.6006 17.9717 18.683 17.9717 18.7846C17.9717 18.8862 18.0541 18.9686 18.1557 18.9686C18.2573 18.9686 18.3397 18.8862 18.3397 18.7846Z" fill="#FF7664"/>
<path d="M12.4883 19.4658H27.2013" stroke="#FAFAFA" stroke-width="3"/>
<path d="M20.0293 12.2656L27.2963 19.5336L20.0293 26.8016" stroke="#FAFAFA" stroke-width="3"/>
</svg>
