<svg width="17" height="17" viewBox="0 0 17 17" fill="none" xmlns="http://www.w3.org/2000/svg">
<path d="M8.79271 1.83098L10.1326 0.34668C10.7902 -0.381883 11.9985 0.118627 11.9485 1.09894L11.8464 3.09559C11.839 3.24136 11.8622 3.38707 11.9146 3.5233C11.967 3.65953 12.0474 3.78326 12.1506 3.88647C12.2538 3.98968 12.3775 4.07009 12.5137 4.1225C12.65 4.1749 12.7957 4.19813 12.9414 4.1907L14.9381 4.08854C15.9185 4.03847 16.4188 5.24679 15.6903 5.90452L14.2061 7.24429C14.0978 7.34211 14.0113 7.46157 13.952 7.59493C13.8928 7.7283 13.8622 7.87261 13.8622 8.01855C13.8622 8.16449 13.8928 8.30881 13.952 8.44218C14.0113 8.57555 14.0978 8.695 14.2061 8.79283L15.6903 10.1327C16.4188 10.7904 15.9184 11.9988 14.9381 11.9486L12.9414 11.8467C12.7957 11.8392 12.65 11.8624 12.5137 11.9148C12.3775 11.9672 12.2538 12.0476 12.1506 12.1508C12.0474 12.254 11.967 12.3777 11.9146 12.5139C11.8622 12.6501 11.839 12.7958 11.8464 12.9416L11.9485 14.9382C11.9984 15.9185 10.7902 16.4189 10.1326 15.6902L8.79271 14.2065C8.69493 14.0981 8.57549 14.0115 8.44213 13.9522C8.30877 13.893 8.16444 13.8623 8.0185 13.8623C7.87256 13.8623 7.72824 13.893 7.59488 13.9522C7.46152 14.0115 7.34208 14.0981 7.2443 14.2065L5.90462 15.6902C5.24683 16.4189 4.03856 15.9184 4.08863 14.9382L4.1906 12.9416C4.19804 12.7958 4.1748 12.6501 4.12241 12.5139C4.07002 12.3777 3.98963 12.254 3.88644 12.1508C3.78324 12.0476 3.65954 11.9672 3.52333 11.9148C3.38712 11.8624 3.24143 11.8392 3.09569 11.8467L1.09876 11.9486C0.118587 11.9987 -0.381777 10.7904 0.346529 10.1327L1.83069 8.79283C1.93903 8.69503 2.02563 8.57558 2.08491 8.44221C2.14419 8.30884 2.17483 8.16451 2.17483 8.01855C2.17483 7.8726 2.14419 7.72828 2.08491 7.5949C2.02563 7.46153 1.93903 7.34208 1.83069 7.24429L0.346529 5.90452C-0.381777 5.24679 0.118648 4.03841 1.09876 4.08854L3.09569 4.1907C3.24144 4.1981 3.38713 4.17485 3.52333 4.12244C3.65954 4.07002 3.78325 3.9896 3.88644 3.8864C3.98962 3.78319 4.06999 3.65948 4.12238 3.52326C4.17477 3.38704 4.19803 3.24134 4.1906 3.09559L4.08863 1.09894C4.03856 0.118566 5.24683 -0.381883 5.90462 0.34668L7.2443 1.83098C7.34212 1.93927 7.46158 2.02583 7.59494 2.08508C7.72829 2.14432 7.87258 2.17492 8.0185 2.17492C8.16442 2.17492 8.30871 2.14432 8.44207 2.08508C8.57542 2.02583 8.69489 1.93927 8.79271 1.83098Z" fill="#EFB002"/>
</svg>
